<?xml version="1.0" encoding="UTF-8" standalone="no"?>
<svg xmlns:xlink="http://www.w3.org/1999/xlink" height="230.75px" width="191.0px" xmlns="http://www.w3.org/2000/svg">
  <g transform="matrix(1.0, 0.0, 0.0, 1.0, 255.3, 174.7)">
    <path d="M-167.3 -173.95 L-154.25 -174.6 Q-130.3 -173.45 -111.1 -162.3 -92.4 -151.4 -85.55 -128.25 -84.75 -125.55 -84.6 -122.0 -84.05 -106.75 -87.0 -94.9 -91.3 -77.5 -100.3 -65.0 -82.45 -53.35 -70.5 -35.85 -69.05 -33.75 -67.3 -32.0 -64.65 -24.65 -64.3 -15.0 L-64.3 -14.0 Q-67.65 -4.35 -78.15 -1.55 L-78.3 -1.0 Q-85.5 -0.3 -89.3 -2.0 L-89.3 -1.0 -89.3 1.0 Q-88.25 4.55 -92.6 7.55 L-94.05 8.45 Q-98.0 10.8 -90.3 10.0 -84.5 15.2 -87.0 27.85 -88.7 36.6 -92.85 43.3 -96.55 49.25 -103.4 51.7 L-105.3 52.0 Q-116.1 49.8 -119.75 40.15 -119.8 40.0 -120.3 40.0 L-132.3 40.0 -133.3 40.0 Q-143.2 36.9 -146.75 27.15 -146.8 27.0 -147.3 27.0 -151.25 25.55 -156.55 27.15 -159.3 28.0 -162.3 27.9 -165.1 27.8 -167.3 27.0 L-195.05 54.25 -195.3 55.0 Q-200.95 56.35 -208.3 56.0 L-209.3 56.0 Q-223.15 49.85 -229.95 36.8 -233.05 30.9 -231.3 25.0 -228.25 17.05 -216.3 17.0 L-216.0 16.1 -215.3 15.0 Q-214.05 10.75 -213.3 7.0 L-214.0 6.55 -217.3 4.0 Q-216.15 -1.85 -215.95 -9.0 -215.7 -18.4 -213.0 -25.9 -210.45 -33.15 -207.3 -40.0 -214.5 -38.2 -221.15 -35.55 L-221.3 -35.0 Q-229.1 -33.4 -241.3 -33.0 L-242.3 -33.0 Q-250.7 -37.1 -255.1 -45.1 L-255.3 -46.0 Q-254.8 -53.5 -251.55 -58.15 -251.3 -58.5 -251.3 -59.0 -239.5 -71.7 -215.3 -72.5 L-215.3 -73.0 Q-217.9 -77.85 -219.95 -83.15 L-220.7 -84.8 -221.3 -85.0 Q-221.75 -98.5 -217.85 -107.8 -217.8 -108.0 -217.3 -108.0 L-215.85 -131.0 Q-215.3 -141.0 -211.55 -148.15 -207.7 -155.4 -201.3 -160.05 L-192.0 -166.55 Q-190.15 -167.85 -189.3 -170.0 L-178.3 -172.1 -167.3 -173.95 Z" fill="none" stroke="#ffffff" stroke-linecap="round" stroke-linejoin="round" stroke-width="0.05"/>
    <path d="M-167.3 -173.95 L-154.25 -174.6 Q-130.3 -173.45 -111.1 -162.3 -92.4 -151.4 -85.55 -128.25 -84.75 -125.55 -84.6 -122.0 -84.05 -106.75 -87.0 -94.9 -91.3 -77.5 -100.3 -65.0 -82.45 -53.35 -70.5 -35.85 -69.05 -33.75 -67.3 -32.0 -64.65 -24.65 -64.3 -15.0 L-64.3 -14.0 Q-67.65 -4.35 -78.15 -1.55 L-78.3 -1.0 Q-85.5 -0.3 -89.3 -2.0 L-89.3 -1.0 -89.3 1.0 Q-88.25 4.55 -92.6 7.55 L-94.05 8.45 Q-98.0 10.8 -90.3 10.0 -84.5 15.2 -87.0 27.85 -88.7 36.6 -92.85 43.3 -96.55 49.25 -103.4 51.7 L-105.3 52.0 Q-116.1 49.8 -119.75 40.15 -119.8 40.0 -120.3 40.0 L-132.3 40.0 -133.3 40.0 Q-143.2 36.9 -146.75 27.15 -146.8 27.0 -147.3 27.0 -151.25 25.55 -156.55 27.15 -159.3 28.0 -162.3 27.9 -165.1 27.8 -167.3 27.0 L-195.05 54.25 -195.3 55.0 Q-200.95 56.35 -208.3 56.0 L-209.3 56.0 Q-223.15 49.85 -229.95 36.8 -233.05 30.9 -231.3 25.0 -228.25 17.05 -216.3 17.0 L-216.0 16.1 -215.3 15.0 Q-214.05 10.75 -213.3 7.0 L-214.0 6.55 -217.3 4.0 Q-216.15 -1.85 -215.95 -9.0 -215.7 -18.4 -213.0 -25.9 -210.45 -33.15 -207.3 -40.0 -214.5 -38.2 -221.15 -35.55 L-221.3 -35.0 Q-229.1 -33.4 -241.3 -33.0 L-242.3 -33.0 Q-250.7 -37.1 -255.1 -45.1 L-255.3 -46.0 Q-254.8 -53.5 -251.55 -58.15 -251.3 -58.5 -251.3 -59.0 -239.5 -71.7 -215.3 -72.5 L-215.3 -73.0 Q-217.9 -77.85 -219.95 -83.15 L-220.7 -84.8 -221.3 -85.0 Q-221.75 -98.5 -217.85 -107.8 -217.8 -108.0 -217.3 -108.0 L-215.85 -131.0 Q-215.3 -141.0 -211.55 -148.15 -207.7 -155.4 -201.3 -160.05 L-192.0 -166.55 Q-190.15 -167.85 -189.3 -170.0 L-178.3 -172.1 -167.3 -173.95 M-171.35 -150.65 Q-173.3 -151.0 -174.95 -151.75 -184.9 -156.4 -193.3 -163.0 L-198.25 -158.95 Q-214.5 -145.7 -213.0 -115.0 -212.65 -106.8 -214.65 -101.75 -216.85 -96.05 -215.3 -88.2 -212.4 -73.4 -202.15 -65.2 -197.95 -61.8 -192.45 -59.6 -188.0 -57.8 -182.45 -56.4 L-171.15 -53.85 -158.3 -51.0 Q-151.0 -52.7 -141.3 -52.5 L-140.25 -52.55 Q-131.0 -53.7 -123.2 -55.65 -111.05 -58.75 -104.3 -67.0 -104.6 -68.2 -106.95 -66.5 -108.3 -65.5 -110.25 -65.65 -114.45 -66.0 -110.3 -67.0 -109.3 -68.5 -107.95 -69.5 -107.3 -70.0 -107.0 -70.45 -101.95 -78.1 -107.3 -84.0 -110.8 -86.15 -114.35 -84.05 -115.3 -83.5 -115.45 -82.85 -116.55 -77.25 -123.3 -78.0 -125.7 -79.6 -125.95 -83.05 -127.15 -97.35 -124.3 -108.0 -122.5 -109.2 -121.15 -110.85 -114.05 -119.75 -113.3 -135.0 -113.8 -135.0 -113.95 -135.2 -117.85 -141.95 -122.3 -148.0 L-123.2 -148.2 -129.3 -151.0 -146.35 -150.25 Q-155.3 -148.75 -161.25 -149.35 L-171.35 -150.65 M-206.25 -106.9 Q-202.3 -109.2 -198.3 -107.0 -193.5 -103.8 -196.2 -97.95 -198.25 -93.5 -205.3 -94.0 -210.65 -97.85 -208.75 -103.8 -208.1 -105.8 -206.25 -106.9 M-231.75 -36.45 Q-236.45 -41.35 -239.55 -48.9 L-239.85 -50.05 Q-240.2 -56.1 -244.3 -58.0 -244.3 -57.5 -244.55 -57.3 -249.5 -53.2 -250.3 -45.0 L-250.1 -44.15 Q-246.7 -38.6 -240.3 -36.0 L-232.3 -36.0 -231.3 -36.0 -231.75 -36.45 M-151.3 -81.0 Q-157.0 -82.8 -158.35 -88.25 -158.8 -90.0 -158.2 -92.0 -157.0 -96.2 -152.3 -97.0 -142.4 -96.9 -142.8 -87.0 L-143.3 -87.0 Q-143.95 -82.15 -149.25 -81.6 L-151.3 -81.0 M-81.5 -24.45 Q-90.45 -20.65 -95.3 -13.0 L-94.7 -12.8 Q-91.75 -6.55 -85.3 -4.0 L-84.3 -4.0 Q-72.05 -3.75 -68.3 -12.0 L-68.1 -12.9 Q-65.4 -18.85 -68.3 -23.0 -68.3 -23.5 -68.55 -23.65 -72.45 -26.15 -81.3 -25.0 -81.3 -24.5 -81.5 -24.45 M-91.8 3.0 L-91.85 2.85 -92.3 3.0 -91.8 3.0 M-228.3 26.0 Q-228.3 28.0 -227.75 29.85 -223.1 45.8 -209.3 53.0 L-199.3 53.0 -198.3 52.9 Q-197.85 47.05 -199.3 42.0 -206.0 31.2 -219.25 26.9 -224.85 25.1 -228.3 26.0" fill="#000000" fill-rule="evenodd" stroke="none"/>
    <path d="M-231.75 -36.45 L-231.3 -36.0 -232.3 -36.0 -231.75 -36.45 M-91.8 3.0 L-92.3 3.0 -91.85 2.85 -91.8 3.0" fill="#ffffff" fill-rule="evenodd" stroke="none"/>
    <path d="M-228.3 26.0 Q-224.85 25.1 -219.25 26.9 -206.0 31.2 -199.3 42.0 -197.85 47.05 -198.3 52.9 L-199.3 53.0 -209.3 53.0 Q-223.1 45.8 -227.75 29.85 -228.3 28.0 -228.3 26.0" fill="#333333" fill-rule="evenodd" stroke="none"/>
    <path d="M-171.35 -150.65 L-161.25 -149.35 Q-155.3 -148.75 -146.35 -150.25 L-129.3 -151.0 -123.2 -148.2 -122.3 -148.0 Q-117.85 -141.95 -113.95 -135.2 -113.8 -135.0 -113.3 -135.0 -114.05 -119.75 -121.15 -110.85 -122.5 -109.2 -124.3 -108.0 -127.15 -97.35 -125.95 -83.05 -125.7 -79.6 -123.3 -78.0 -116.55 -77.25 -115.45 -82.85 -115.3 -83.5 -114.35 -84.05 -110.8 -86.15 -107.3 -84.0 -101.95 -78.1 -107.0 -70.45 -107.3 -70.0 -107.95 -69.5 -109.3 -68.5 -110.3 -67.0 -114.45 -66.0 -110.25 -65.65 -108.3 -65.5 -106.95 -66.5 -104.6 -68.2 -104.3 -67.0 -111.05 -58.75 -123.2 -55.65 -131.0 -53.7 -140.25 -52.55 L-141.3 -52.5 Q-151.0 -52.7 -158.3 -51.0 L-171.15 -53.85 -182.45 -56.4 Q-188.0 -57.8 -192.45 -59.6 -197.95 -61.8 -202.15 -65.2 -212.4 -73.4 -215.3 -88.2 -216.85 -96.05 -214.65 -101.75 -212.65 -106.8 -213.0 -115.0 -214.5 -145.7 -198.25 -158.95 L-193.3 -163.0 Q-184.9 -156.4 -174.95 -151.75 -173.3 -151.0 -171.35 -150.65 M-206.25 -106.9 Q-208.1 -105.8 -208.75 -103.8 -210.65 -97.85 -205.3 -94.0 -198.25 -93.5 -196.2 -97.95 -193.5 -103.8 -198.3 -107.0 -202.3 -109.2 -206.25 -106.9 M-232.3 -36.0 L-240.3 -36.0 Q-246.7 -38.6 -250.1 -44.15 L-250.3 -45.0 Q-249.5 -53.2 -244.55 -57.3 -244.3 -57.5 -244.3 -58.0 -240.2 -56.1 -239.85 -50.05 L-239.55 -48.9 Q-236.45 -41.35 -231.75 -36.45 L-232.3 -36.0 M-151.3 -81.0 L-149.25 -81.6 Q-143.95 -82.15 -143.3 -87.0 L-142.8 -87.0 Q-142.4 -96.9 -152.3 -97.0 -157.0 -96.2 -158.2 -92.0 -158.8 -90.0 -158.35 -88.25 -157.0 -82.8 -151.3 -81.0 M-81.5 -24.45 Q-81.3 -24.5 -81.3 -25.0 -72.45 -26.15 -68.55 -23.65 -68.3 -23.5 -68.3 -23.0 -65.4 -18.85 -68.1 -12.9 L-68.3 -12.0 Q-72.05 -3.75 -84.3 -4.0 L-85.3 -4.0 Q-91.75 -6.55 -94.7 -12.8 L-95.3 -13.0 Q-90.45 -20.65 -81.5 -24.45" fill="#fdc893" fill-rule="evenodd" stroke="none"/>
  </g>
</svg>
